<?xml version="1.0" encoding="UTF-8"?>
<svg width="32px" height="32px" viewBox="0 0 32 32" version="1.1" xmlns="http://www.w3.org/2000/svg" xmlns:xlink="http://www.w3.org/1999/xlink">
    <!-- Generator: Sketch 46.2 (44496) - http://www.bohemiancoding.com/sketch -->
    <title>facebook-black</title>
    <desc>Created with Sketch.</desc>
    <defs></defs>
    <g id="Desktop" stroke="none" stroke-width="1" fill="none" fill-rule="evenodd">
        <g id="Homepage" transform="translate(-1088.000000, -5808.000000)" fill-rule="nonzero" fill="#9B9B9B">
            <g id="facebook-black" transform="translate(1088.000000, 5808.000000)">
                <path d="M17.0922367,32 L1.76615467,32 C0.790448667,32 0,31.2090613 0,30.2337353 L0,1.76614067 C0,0.790566667 0.790572667,0 1.76615467,0 L30.23397,0 C31.2093033,0 32,0.790566667 32,1.76614067 L32,30.2337353 C32,31.2091853 31.2091793,32 30.23397,32 L22.0795367,32 L22.0795367,19.6078367 L26.239014,19.6078367 L26.8618367,14.7783907 L22.0795367,14.7783907 L22.0795367,11.695094 C22.0795367,10.296858 22.467808,9.34400667 24.47286,9.34400667 L27.0302073,9.34288867 L27.0302073,5.023394 C26.587924,4.96453867 25.069856,4.83304667 23.3037013,4.83304667 C19.616556,4.83304667 17.0922367,7.083684 17.0922367,11.216806 L17.0922367,14.7783907 L12.9220813,14.7783907 L12.9220813,19.6078367 L17.0922367,19.6078367 L17.0922367,32 L17.0922367,32 Z" id="Facebook"></path>
            </g>
        </g>
    </g>
</svg>