<?xml version="1.0" encoding="UTF-8"?>
<svg width="50px" height="32px" viewBox="0 0 50 32" version="1.1" xmlns="http://www.w3.org/2000/svg" xmlns:xlink="http://www.w3.org/1999/xlink">
    <!-- Generator: Sketch 46.2 (44496) - http://www.bohemiancoding.com/sketch -->
    <title>googleplus-color</title>
    <desc>Created with Sketch.</desc>
    <defs></defs>
    <g id="Coming-Soon" stroke="none" stroke-width="1" fill="none" fill-rule="evenodd" fill-opacity="0.72">
        <g id="Homepage_CS" transform="translate(-507.000000, -928.000000)" fill-rule="nonzero" fill="#FFFFFF">
            <g id="Group-4" transform="translate(256.000000, 928.000000)">
                <g id="googleplus-color" transform="translate(251.000000, 0.000000)">
                    <path d="M44.4968553,13.148515 L44.4968553,7.60396038 L40.5660379,7.60396038 L40.5660379,13.148515 L34.9056606,13.148515 L34.9056606,17.1089112 L40.5660379,17.1089112 L40.5660379,22.8118811 L44.4968553,22.8118811 L44.4968553,17.1089112 L50,17.1089112 L50,13.148515 L44.4968553,13.148515 L44.4968553,13.148515 Z M15.880503,12.831683 L15.880503,19.168317 C15.880503,19.168317 21.9817614,19.1600792 24.4660379,19.1600792 C23.1207545,23.2679604 21.0289311,25.5049509 15.880503,25.5049509 C10.6702833,25.5049509 6.60377348,21.2494255 6.60377348,16 C6.60377348,10.7505745 10.6702833,6.49504914 15.880503,6.49504914 C18.6352205,6.49504914 20.4143083,7.47057448 22.0462265,8.83025752 C23.3525159,7.51413867 23.2433962,7.32657448 26.5668242,4.16443581 C23.7455977,1.57718781 19.9959121,0 15.880503,0 C7.1099053,0 0,7.16340571 0,16 C0,24.8364358 7.1099053,32 15.880503,32 C28.9900947,32 32.1943394,20.4990095 31.1320758,12.831683 L15.880503,12.831683 L15.880503,12.831683 Z" id="GooglePlus"></path>
                </g>
            </g>
        </g>
    </g>
</svg>