<?xml version="1.0" encoding="UTF-8"?>
<svg width="32px" height="32px" viewBox="0 0 32 32" version="1.1" xmlns="http://www.w3.org/2000/svg" xmlns:xlink="http://www.w3.org/1999/xlink">
    <!-- Generator: Sketch 46.2 (44496) - http://www.bohemiancoding.com/sketch -->
    <title>instagram-color</title>
    <desc>Created with Sketch.</desc>
    <defs></defs>
    <g id="Coming-Soon" stroke="none" stroke-width="1" fill="none" fill-rule="evenodd" fill-opacity="0.72">
        <g id="Homepage_CS" transform="translate(-782.000000, -928.000000)" fill-rule="nonzero" fill="#FFFFFF">
            <g id="Group-4" transform="translate(256.000000, 928.000000)">
                <g id="instagram-color" transform="translate(526.000000, 0.000000)">
                    <path d="M16.000032,0 C11.6546607,0 11.1097907,0.0184186667 9.40322067,0.0962846667 C7.70020733,0.173959333 6.53711,0.444458 5.519392,0.840011333 C4.46725067,1.24883867 3.57496933,1.79593133 2.68541867,2.68541867 C1.79593133,3.57496933 1.24883867,4.46725067 0.840011333,5.519392 C0.444458,6.53711 0.173959333,7.70020733 0.0962846667,9.40322067 C0.0184186667,11.1097907 0,11.6546607 0,16.000032 C0,20.3453393 0.0184186667,20.8902093 0.0962846667,22.5967793 C0.173959333,24.2997927 0.444458,25.46289 0.840011333,26.480608 C1.24883867,27.5327493 1.79593133,28.4250307 2.68541867,29.3145813 C3.57496933,30.2040687 4.46725067,30.7511613 5.519392,31.1600527 C6.53711,31.555542 7.70020733,31.8260407 9.40322067,31.9037153 C11.1097907,31.9815813 11.6546607,32 16.000032,32 C20.3453393,32 20.8902093,31.9815813 22.5967793,31.9037153 C24.2997927,31.8260407 25.46289,31.555542 26.480608,31.1600527 C27.5327493,30.7511613 28.4250307,30.2040687 29.3145813,29.3145813 C30.2040687,28.4250307 30.7511613,27.5327493 31.1600527,26.480608 C31.555542,25.46289 31.8260407,24.2997927 31.9037153,22.5967793 C31.9815813,20.8902093 32,20.3453393 32,16.000032 C32,11.6546607 31.9815813,11.1097907 31.9037153,9.40322067 C31.8260407,7.70020733 31.555542,6.53711 31.1600527,5.519392 C30.7511613,4.46725067 30.2040687,3.57496933 29.3145813,2.68541867 C28.4250307,1.79593133 27.5327493,1.24883867 26.480608,0.840011333 C25.46289,0.444458 24.2997927,0.173959333 22.5967793,0.0962846667 C20.8902093,0.0184186667 20.3453393,0 16.000032,0 Z M16.000032,2.882878 C20.2721733,2.882878 20.7782373,2.89920067 22.4653733,2.97617733 C24.0253573,3.04731067 24.8725453,3.307964 25.436342,3.52708067 C26.1831807,3.81733133 26.7161747,4.164044 27.2760333,4.72396667 C27.835956,5.28382533 28.1826687,5.81681933 28.4729193,6.563658 C28.692036,7.12745467 28.9526893,7.97464267 29.0238227,9.53462667 C29.1007993,11.2217627 29.117122,11.7278267 29.117122,16.000032 C29.117122,20.2721733 29.1007993,20.7782373 29.0238227,22.4653733 C28.9526893,24.0253573 28.692036,24.8725453 28.4729193,25.436342 C28.1826687,26.1831807 27.835956,26.7161747 27.2760333,27.2760333 C26.7161747,27.835956 26.1831807,28.1826687 25.436342,28.4729193 C24.8725453,28.692036 24.0253573,28.9526893 22.4653733,29.0238227 C20.7784913,29.1007993 20.2724907,29.117122 16.000032,29.117122 C11.7275093,29.117122 11.221572,29.1007993 9.53462667,29.0238227 C7.97464267,28.9526893 7.12745467,28.692036 6.563658,28.4729193 C5.81681933,28.1826687 5.28382533,27.835956 4.72396667,27.2760333 C4.16410733,26.7161747 3.81733133,26.1831807 3.52708067,25.436342 C3.307964,24.8725453 3.04731067,24.0253573 2.97617733,22.4653733 C2.89920067,20.7782373 2.882878,20.2721733 2.882878,16.000032 C2.882878,11.7278267 2.89920067,11.2217627 2.97617733,9.53462667 C3.04731067,7.97464267 3.307964,7.12745467 3.52708067,6.563658 C3.81733133,5.81681933 4.164044,5.28382533 4.72396667,4.72396667 C5.28382533,4.164044 5.81681933,3.81733133 6.563658,3.52708067 C7.12745467,3.307964 7.97464267,3.04731067 9.53462667,2.97617733 C11.2217627,2.89920067 11.7278267,2.882878 16.000032,2.882878 Z M16.000032,7.78378867 C11.4622827,7.78378867 7.78378867,11.4622827 7.78378867,16.000032 C7.78378867,20.5377173 11.4622827,24.2162113 16.000032,24.2162113 C20.5377173,24.2162113 24.2162113,20.5377173 24.2162113,16.000032 C24.2162113,11.4622827 20.5377173,7.78378867 16.000032,7.78378867 Z M16.000032,21.3333333 C13.0544673,21.3333333 10.6666667,18.9455327 10.6666667,16.000032 C10.6666667,13.0544673 13.0544673,10.6666667 16.000032,10.6666667 C18.9455327,10.6666667 21.3333333,13.0544673 21.3333333,16.000032 C21.3333333,18.9455327 18.9455327,21.3333333 16.000032,21.3333333 Z M26.460856,7.45917867 C26.460856,8.51957667 25.6012193,9.37914933 24.5408213,9.37914933 C23.4804867,9.37914933 22.6208507,8.51957667 22.6208507,7.45917867 C22.6208507,6.39878067 23.4804867,5.539144 24.5408213,5.539144 C25.6012193,5.539144 26.460856,6.39878067 26.460856,7.45917867 Z" id="Instagram"></path>
                </g>
            </g>
        </g>
    </g>
</svg>