<?xml version="1.0" encoding="UTF-8"?>
<svg width="60px" height="48px" viewBox="0 0 60 48" version="1.1" xmlns="http://www.w3.org/2000/svg" xmlns:xlink="http://www.w3.org/1999/xlink">
    <!-- Generator: Sketch 46.2 (44496) - http://www.bohemiancoding.com/sketch -->
    <title>olive-branches-award-symbol</title>
    <desc>Created with Sketch.</desc>
    <defs></defs>
    <g id="Coming-Soon" stroke="none" stroke-width="1" fill="none" fill-rule="evenodd" opacity="0.396569293">
        <g id="Homepage_CS" transform="translate(-256.000000, -672.000000)" fill-rule="nonzero" fill="#D3A45C">
            <g id="olive-branches-award-symbol" transform="translate(256.000000, 672.000000)">
                <g id="Group">
                    <path d="M6.54469565,16.9878261 C6.54469565,16.9878261 8.39373913,14.6045217 7.19791304,11.2946087 C5.99791304,7.98678261 3.20347826,6.73043478 3.20347826,6.73043478 C3.20347826,6.73043478 1.11234783,9.57078261 2.28104348,12.7951304 C3.44765217,16.0215652 6.54469565,16.9878261 6.54469565,16.9878261 Z" id="Shape"></path>
                    <path d="M11.6765217,18.6803478 C11.6765217,18.6803478 14.9092174,18.4215652 16.7603478,15.5311304 C18.6114783,12.6427826 17.1965217,9.41217391 17.1965217,9.41217391 C17.1965217,9.41217391 14.1954783,10.0215652 12.2942609,12.9871304 C10.3951304,15.9506087 11.6765217,18.6803478 11.6765217,18.6803478 Z" id="Shape"></path>
                    <path d="M12.0041739,22.4994783 C10.5078261,25.6862609 12.1335652,28.2281739 12.1335652,28.2281739 C12.1335652,28.2281739 15.3078261,27.5478261 16.7645217,24.4445217 C18.2191304,21.3370435 16.3951304,18.3193043 16.3951304,18.3193043 C16.3951304,18.3193043 13.5005217,19.3126957 12.0041739,22.4994783 Z" id="Shape"></path>
                    <path d="M19.3106087,25.0664348 C19.3106087,25.0664348 16.5203478,26.3311304 15.3307826,29.6410435 C14.1412174,32.9572174 15.9965217,35.3321739 15.9965217,35.3321739 C15.9965217,35.3321739 19.0893913,34.3575652 20.2497391,31.1290435 C21.408,27.9005217 19.3106087,25.0664348 19.3106087,25.0664348 Z" id="Shape"></path>
                    <path d="M21.6354783,42.4966957 C21.6354783,42.4966957 24.3193043,40.6706087 24.5008696,37.245913 C24.6803478,33.8191304 21.8525217,31.7113043 21.8525217,31.7113043 C21.8525217,31.7113043 19.5443478,33.7252174 19.3586087,37.2396522 C19.1749565,40.752 21.6354783,42.4966957 21.6354783,42.4966957 Z" id="Shape"></path>
                    <path d="M10.6664348,10.610087 C10.6664348,10.610087 13.5276522,9.65426087 14.3666087,6.23791304 C15.2076522,2.82156522 13.581913,0.225391304 13.581913,0.225391304 C13.581913,0.225391304 10.2678261,1.42747826 9.44765217,4.76034783 C8.62956522,8.09113043 10.6664348,10.610087 10.6664348,10.610087 Z" id="Shape"></path>
                    <path d="M6.5426087,24.2525217 C6.5426087,24.2525217 7.60486957,21.4288696 5.4866087,18.621913 C3.36417391,15.8128696 0.325565217,15.4351304 0.325565217,15.4351304 C0.325565217,15.4351304 -0.834782609,18.765913 1.23130435,21.504 C3.2973913,24.2441739 6.5426087,24.2525217 6.5426087,24.2525217 Z" id="Shape"></path>
                    <path d="M8.9133913,31.7029565 C8.9133913,31.7029565 9.32034783,28.7144348 6.63234783,26.448 C3.94017391,24.1794783 0.893217391,24.4883478 0.893217391,24.4883478 C0.893217391,24.4883478 0.500869565,27.9944348 3.12208696,30.2045217 C5.74747826,32.4125217 8.9133913,31.7029565 8.9133913,31.7029565 Z" id="Shape"></path>
                    <path d="M12.5238261,37.8636522 C12.5238261,37.8636522 12.0125217,34.8918261 8.76104348,33.5478261 C5.50747826,32.1996522 2.69843478,33.4163478 2.69843478,33.4163478 C2.69843478,33.4163478 3.38713043,36.8765217 6.55513043,38.1913043 C9.72313043,39.4998261 12.5238261,37.8636522 12.5238261,37.8636522 Z" id="Shape"></path>
                    <path d="M14.1015652,40.4222609 C10.7123478,39.4747826 8.06608696,41.0170435 8.06608696,41.0170435 C8.06608696,41.0170435 9.16173913,44.3686957 12.4633043,45.2932174 C15.7690435,46.2177391 18.3526957,44.258087 18.3526957,44.258087 C18.3526957,44.258087 17.4907826,41.3676522 14.1015652,40.4222609 Z" id="Shape"></path>
                    <path d="M11.0191304,12.6469565 L9.51234783,11.906087 C9.43304348,12.0709565 1.68208696,28.5349565 23.4615652,47.1526957 L24.5509565,45.8775652 C3.81495652,28.1488696 10.7144348,13.2709565 11.0191304,12.6469565 Z" id="Shape"></path>
                </g>
                <g id="Group" transform="translate(34.391304, 0.000000)">
                    <path d="M18.9283478,16.9565217 C18.9283478,16.9565217 17.0772174,14.5732174 18.2751304,11.2653913 C19.4709565,7.95547826 22.2674783,6.69913043 22.2674783,6.69913043 C22.2674783,6.69913043 24.3565217,9.5373913 23.1878261,12.7638261 C22.0253913,15.9902609 18.9283478,16.9565217 18.9283478,16.9565217 Z" id="Shape"></path>
                    <path d="M13.7965217,18.6490435 C13.7965217,18.6490435 10.5638261,18.3881739 8.7106087,15.4998261 C6.85947826,12.6114783 8.27443478,9.38086957 8.27443478,9.38086957 C8.27443478,9.38086957 11.2754783,9.99026087 13.1787826,12.9537391 C15.077913,15.9193043 13.7965217,18.6490435 13.7965217,18.6490435 Z" id="Shape"></path>
                    <path d="M13.4688696,22.466087 C14.9652174,25.6528696 13.3394783,28.1947826 13.3394783,28.1947826 C13.3394783,28.1947826 10.1652174,27.5144348 8.70643478,24.4111304 C7.25391304,21.3036522 9.07582609,18.285913 9.07582609,18.285913 C9.07582609,18.285913 11.9725217,19.2813913 13.4688696,22.466087 Z" id="Shape"></path>
                    <path d="M6.16243478,25.0351304 C6.16243478,25.0351304 8.9506087,26.2977391 10.1422609,29.613913 C11.3318261,32.928 9.47443478,35.3029565 9.47443478,35.3029565 C9.47443478,35.3029565 6.38365217,34.3262609 5.22330435,31.0977391 C4.06295652,27.8692174 6.16243478,25.0351304 6.16243478,25.0351304 Z" id="Shape"></path>
                    <path d="M3.8333913,42.4633043 C3.8333913,42.4633043 1.15165217,40.6393043 0.970086957,37.2125217 C0.790608696,33.7857391 3.62052174,31.6758261 3.62052174,31.6758261 C3.62052174,31.6758261 5.92452174,33.6897391 6.11234783,37.2062609 C6.29808696,40.7227826 3.8333913,42.4633043 3.8333913,42.4633043 Z" id="Shape"></path>
                    <path d="M14.8024348,10.5787826 C14.8024348,10.5787826 11.9453913,9.62295652 11.1064348,6.2066087 C10.2653913,2.79026087 11.8932174,0.192 11.8932174,0.192 C11.8932174,0.192 15.2073043,1.39408696 16.0253913,4.72904348 C16.8434783,8.05773913 14.8024348,10.5787826 14.8024348,10.5787826 Z" id="Shape"></path>
                    <path d="M18.9304348,24.2212174 C18.9304348,24.2212174 17.8681739,21.3975652 19.9843478,18.5906087 C22.1067826,15.7815652 25.1474783,15.4038261 25.1474783,15.4038261 C25.1474783,15.4038261 26.309913,18.7346087 24.2417391,21.4726957 C22.1735652,24.2128696 18.9304348,24.2212174 18.9304348,24.2212174 Z" id="Shape"></path>
                    <path d="M16.5596522,31.6716522 C16.5596522,31.6716522 16.1506087,28.6831304 18.8406957,26.4125217 C21.5328696,24.146087 24.5798261,24.4549565 24.5798261,24.4549565 C24.5798261,24.4549565 24.9721739,27.9631304 22.3488696,30.1711304 C19.7255652,32.3791304 16.5596522,31.6716522 16.5596522,31.6716522 Z" id="Shape"></path>
                    <path d="M12.9471304,37.8323478 C12.9471304,37.8323478 13.4605217,34.8584348 16.712,33.5123478 C19.9676522,32.1641739 22.7746087,33.3808696 22.7746087,33.3808696 C22.7746087,33.3808696 22.085913,36.8410435 18.917913,38.1537391 C15.7478261,39.4685217 12.9471304,37.8323478 12.9471304,37.8323478 Z" id="Shape"></path>
                    <path d="M11.3693913,40.3909565 C14.7586087,39.4455652 17.4069565,40.9857391 17.4069565,40.9857391 C17.4069565,40.9857391 16.3133913,44.3353043 13.0097391,45.266087 C9.70608696,46.1864348 7.12243478,44.2267826 7.12243478,44.2267826 C7.12243478,44.2267826 7.98226087,41.3384348 11.3693913,40.3909565 Z" id="Shape"></path>
                    <path d="M14.4518261,12.6156522 L15.9627826,11.8747826 C16.042087,12.0396522 23.7930435,28.5036522 2.01147826,47.1193043 L0.924173913,45.8441739 C21.656,28.1196522 14.7565217,13.2375652 14.4518261,12.6156522 Z" id="Shape"></path>
                </g>
            </g>
        </g>
    </g>
</svg>