<?xml version="1.0" encoding="UTF-8"?>
<svg width="32px" height="32px" viewBox="0 0 32 32" version="1.1" xmlns="http://www.w3.org/2000/svg" xmlns:xlink="http://www.w3.org/1999/xlink">
    <!-- Generator: Sketch 46.2 (44496) - http://www.bohemiancoding.com/sketch -->
    <title>pinterest-black</title>
    <desc>Created with Sketch.</desc>
    <defs></defs>
    <g id="Desktop" stroke="none" stroke-width="1" fill="none" fill-rule="evenodd">
        <g id="Homepage" transform="translate(-1567.000000, -5808.000000)" fill-rule="nonzero" fill="#9B9B9B">
            <g id="pinterest-black" transform="translate(1567.000000, 5808.000000)">
                <path d="M16.0009407,0 C7.16505,0 0,7.163168 0,16.0009407 C0,22.5507147 3.94002467,28.180396 9.57911467,30.6546713 C9.53395667,29.538896 9.571588,28.1954487 9.85570667,26.9799493 C10.1642853,25.6816607 11.9141527,18.262598 11.9141527,18.262598 C11.9141527,18.262598 11.4042453,17.2409007 11.4042453,15.7299933 C11.4042453,13.3592053 12.7796787,11.58864 14.4900333,11.58864 C15.9444933,11.58864 16.648204,12.6818367 16.648204,13.9914153 C16.648204,15.4534013 15.7149407,17.6416767 15.2351387,19.6681367 C14.834362,21.367202 16.085612,22.750162 17.7602167,22.750162 C20.7914387,22.750162 22.8329513,18.8571767 22.8329513,14.2435467 C22.8329513,10.7381667 20.4715707,8.11336533 16.1759273,8.11336533 C11.3233373,8.11336533 8.29964133,11.73164 8.29964133,15.77327 C8.29964133,17.1694007 8.70982533,18.1515847 9.35332533,18.911742 C9.65061467,19.2635973 9.69012733,19.402834 9.58287733,19.805492 C9.50761467,20.0971367 9.330746,20.8083733 9.25736467,21.088728 C9.15011467,21.4932673 8.82272,21.6400307 8.457694,21.489504 C6.22049733,20.5769387 5.17998467,18.129006 5.17998467,15.3762567 C5.17998467,10.8322453 9.01275933,5.379432 16.6143353,5.379432 C22.7238193,5.379432 26.744752,9.803022 26.744752,14.5464807 C26.744752,20.8234253 23.256306,25.5123187 18.11019,25.5123187 C16.3847827,25.5123187 14.7590993,24.579056 14.202152,23.5197273 C14.202152,23.5197273 13.2726527,27.2057387 13.076968,27.9169753 C12.738284,29.1494093 12.0740873,30.3837247 11.4663373,31.3433293 C12.9057447,31.768566 14.42606,32 16.0009407,32 C24.836832,32 32,24.836832 32,16.0009407 C32,7.163168 24.836832,0 16.0009407,0" id="Pinterest"></path>
            </g>
        </g>
    </g>
</svg>