<?xml version="1.0" encoding="UTF-8"?>
<svg width="39px" height="32px" viewBox="0 0 39 32" version="1.1" xmlns="http://www.w3.org/2000/svg" xmlns:xlink="http://www.w3.org/1999/xlink">
    <!-- Generator: Sketch 46.2 (44496) - http://www.bohemiancoding.com/sketch -->
    <title>twitter-black</title>
    <desc>Created with Sketch.</desc>
    <defs></defs>
    <g id="Desktop" stroke="none" stroke-width="1" fill="none" fill-rule="evenodd">
        <g id="Homepage" transform="translate(-1176.000000, -5808.000000)" fill-rule="nonzero" fill="#9B9B9B">
            <g id="twitter-black" transform="translate(1176.000000, 5808.000000)">
                <path d="M39,3.7882264 C37.5670011,4.4307696 36.0241237,4.8652944 34.4057049,5.059444 C36.0584607,4.0609608 37.3266416,2.4777176 37.9241062,0.5916936 C36.3766512,1.5162152 34.6666669,2.1888048 32.839937,2.549368 C31.3840467,0.9799928 29.303222,0 27.0003524,0 C22.5846099,0 19.002113,3.6171904 19.002113,8.0780064 C19.002113,8.711304 19.0707871,9.3261104 19.2081354,9.917804 C12.5581966,9.5803536 6.66367325,6.3676416 2.71491431,1.474612 C2.02588506,2.6718672 1.63215325,4.0609608 1.63215325,5.5401952 C1.63215325,8.3414952 3.04455044,10.8145904 5.19175881,12.2637776 C3.88237362,12.2244856 2.64624019,11.856988 1.56576875,11.2560488 L1.56576875,11.3554352 C1.56576875,15.270784 4.324177,18.536656 7.98679375,19.2762728 C7.31607663,19.4658 6.60873362,19.5605632 5.87850006,19.5605632 C5.36344412,19.5605632 4.85983469,19.5120264 4.37224856,19.4172624 C5.39091394,22.625352 8.34389887,24.96208 11.846276,25.0244856 C9.1084695,27.192488 5.65645356,28.4845072 1.90913856,28.4845072 C1.26360244,28.4845072 0.624933563,28.4475264 0,28.3735648 C3.54129263,30.6617552 7.74872313,32 12.2651872,32 C26.9843283,32 35.0306393,19.692308 35.0306393,9.016396 C35.0306393,8.6650776 35.0237721,8.3137592 35.0100367,7.9693752 C36.5735167,6.8299024 37.9309734,5.4084504 39,3.7882264" id="Twitter"></path>
            </g>
        </g>
    </g>
</svg>