<svg xmlns="http://www.w3.org/2000/svg" width="242" height="64" xmlns:xlink="http://www.w3.org/1999/xlink">
  <defs>
    <path id="a" d="M0 .3322v18.3116h16.0738V.3322H0z"/>
    <path id="c" d="M17.5904 18.0776V.4746H.1696v17.603h17.4208z"/>
  </defs>
  <g fill="none" fill-rule="evenodd">
    <g fill="#FFF">
      <path d="M63.92 32.5878c-.0055 1.3502-1.1185 2.441-2.487 2.4353-1.371-.004-2.4734-1.104-2.47-2.456.0085-1.352 2.499-4.596 2.499-4.596s2.465 3.263 2.458 4.618M.6378 30.168c.0055-1.354 1.1205-2.445 2.4913-2.4418 1.368.008 2.472 1.109 2.467 2.4605C5.59 31.5412 3.099 34.78 3.099 34.78S.6316 31.522.638 30.1675"/>
      <path d="M32.5195 3.4414C16.5483 3.3732 3.5033 16.1504 3.435 31.924c-.0676 15.7744 12.868 28.6597 28.8378 28.7244C48.239 60.716 61.284 47.9428 61.3502 32.165c.0683-15.7702-12.868-28.6562-28.8307-28.7236m-.251 57.8164C15.963 61.186 2.7592 48.0282 2.829 31.9206 2.8966 15.8144 16.2147 2.766 32.521 2.8326c16.3036.0717 29.509 13.231 29.4406 29.3366-.071 16.1062-13.3885 29.1547-29.6928 29.0886"/>
      <path d="M32.9166.6885c1.3687.0035 2.4732 1.1093 2.4677 2.463-.0056 1.348-1.1178 2.4422-2.4872 2.436-1.37-.0062-4.647-2.4665-4.647-2.4665S31.548.6847 32.917.6888M30.468 63.214c-1.368-.0063-2.4712-1.108-2.4663-2.4623.007-1.3516 1.1192-2.443 2.488-2.4367 1.37.0075 4.646 2.4684 4.646 2.4684S31.838 63.22 30.468 63.214m24.6383-52.9202c.9617.9632.956 2.511-.0154 3.4605-.97.9543-2.541.9468-3.502-.013-.969-.96-1.525-4.9926-1.525-4.9926s4.079.5852 5.042 1.545M8.627 52.7934c-.9595-.9598-.9532-2.5097.0147-3.46.9715-.9556 2.538-.9473 3.5054.0138.966.9578 1.521 4.99 1.521 4.99s-4.079-.584-5.04-1.5438m45.574 1.994c-.973.9522-2.544.946-3.503-.0138-.969-.9598-.964-2.5118.016-3.4654.968-.9495 5.053-1.5003 5.053-1.5003s-.598 4.03-1.565 4.979M11.184 8.868c.9712-.9544 2.542-.9468 3.508.015.957.9565.951 2.5084-.016 3.4627-.972.9488-5.0568 1.4976-5.0568 1.4976s.591-4.028 1.5642-4.9754M63.92 32.587c-.0055 1.3502-1.1185 2.441-2.487 2.4353-1.371-.004-2.4734-1.1043-2.47-2.4565.0085-1.3522 2.499-4.596 2.499-4.596s2.465 3.263 2.458 4.6174m-63.2822-2.42c.0055-1.3537 1.1205-2.445 2.4913-2.4416 1.368.008 2.472 1.109 2.467 2.4607-.006 1.355-2.497 4.5937-2.497 4.5937S.632 31.522.638 30.1675"/>
      <path d="M32.9166.6885c1.3687.0035 2.4732 1.1093 2.4677 2.463-.0056 1.348-1.1178 2.4422-2.4872 2.436-1.37-.0062-4.647-2.4665-4.647-2.4665S31.548.6847 32.917.6888M30.468 63.214c-1.368-.0063-2.4712-1.108-2.4663-2.4623.007-1.3516 1.1192-2.443 2.488-2.4367 1.37.0075 4.646 2.4684 4.646 2.4684S31.838 63.22 30.468 63.214m24.6383-52.9202c.9617.9632.956 2.511-.0154 3.4605-.97.9543-2.541.9468-3.502-.013-.969-.96-1.525-4.9926-1.525-4.9926s4.079.5852 5.042 1.545M8.627 52.7934c-.9595-.9598-.9532-2.5097.0147-3.46.9715-.9556 2.538-.9473 3.5054.0138.966.9578 1.521 4.99 1.521 4.99s-4.079-.584-5.04-1.5438m45.574 1.994c-.973.9522-2.544.946-3.503-.0138-.969-.9598-.964-2.5118.016-3.4654.968-.9495 5.053-1.5003 5.053-1.5003s-.598 4.03-1.565 4.979M11.184 8.868c.9712-.9544 2.542-.9468 3.508.015.957.9565.951 2.5084-.016 3.4627-.972.9488-5.0568 1.4976-5.0568 1.4976s.591-4.028 1.5642-4.9754m21.195 3.396C21.303 12.216 12.256 20.985 12.21 31.802c-.0464 10.8293 8.924 19.6715 19.9988 19.719 11.0734.0475 20.1148-8.7196 20.1643-19.549.048-10.8216-8.922-19.6625-19.994-19.708m-.171 39.6997c-11.32-.0467-20.492-9.0914-20.444-20.1617.048-11.064 9.296-20.028 20.616-19.9804 11.315.0475 20.482 9.088 20.436 20.154-.047 11.0704-9.298 20.0358-20.608 19.9883"/>
      <path d="M32.7195 10.3997c.9422.004 1.7046.7622 1.701 1.6965-.004.9323-.774 1.6842-1.717 1.6807-.9422-.005-3.2077-1.702-3.2077-1.702s2.2802-1.677 3.2237-1.676m-1.6873 43.105c-.9485-.004-1.711-.762-1.7074-1.695.005-.934.775-1.687 1.722-1.682.9415.004 3.2008 1.704 3.2008 1.704s-2.2732 1.676-3.2154 1.672m16.986-36.484c.6636.665.66 1.733-.0117 2.389-.6725.655-1.75.652-2.414-.009-.669-.663-1.0516-3.444-1.0516-3.444s2.811.399 3.477 1.062M15.971 46.32c-.6665-.6637-.6595-1.7303.011-2.387.6654-.6577 1.7553-.6522 2.4174.0095.6655.663 1.0523 3.443 1.0523 3.443s-2.8183-.402-3.481-1.065m31.4166 1.376c-.6655.654-1.75.649-2.4174-.0105-.659-.663-.657-1.7295.01-2.385.673-.6596 3.487-1.0362 3.487-1.0362s-.409 2.774-1.08 3.4316m-37.14-16.977c.005-.9323.775-1.682 1.718-1.68.941.005 1.701.7615 1.697 1.6924-.005.935-1.719 3.1665-1.719 3.1665s-1.699-2.2475-1.697-3.179"/>
      <path d="M32.7195 10.3997c.9422.004 1.7046.7622 1.701 1.6965-.004.9323-.774 1.6842-1.717 1.6807-.9422-.005-3.2077-1.702-3.2077-1.702s2.2802-1.677 3.2237-1.676m-1.6873 43.105c-.9485-.004-1.711-.762-1.7074-1.695.005-.934.775-1.687 1.722-1.682.9415.004 3.2008 1.704 3.2008 1.704s-2.2732 1.676-3.2154 1.672M15.9715 46.32c-.6662-.6636-.6592-1.7302.0112-2.387.6655-.6576 1.7554-.652 2.4175.0096.6655.663 1.0523 3.4434 1.0523 3.4434s-2.8182-.402-3.481-1.0656m31.4167 1.376c-.6656.654-1.75.649-2.4175-.0104-.6586-.663-.6565-1.7295.0104-2.385.674-.6596 3.487-1.0362 3.487-1.0362s-.408 2.774-1.079 3.4317M17.517 16.036c.669-.6555 1.752-.6513 2.414.0117.6676.6624.6634 1.7303-.009 2.3858-.669.6555-3.4796 1.039-3.4796 1.039s.4048-2.7782 1.0745-3.4365m36.79 16.572c-.002.93-.771 1.688-1.715 1.685-.943-.0024-1.699-.7687-1.698-1.701.007-.9323 1.717-3.163 1.717-3.163s1.7 2.2465 1.695 3.179m-41.785-9.961c.359-.8606 1.361-1.2717 2.227-.9123.87.354 1.287 1.3434.924 2.2034-.36.862-2.807 2.288-2.807 2.288s-.711-2.719-.345-3.578m28.385-10.477c.874.362 1.286 1.345.925 2.207-.366.863-1.363 1.272-2.235.913-.871-.354-2.317-2.772-2.317-2.772s2.751-.703 3.626-.345M22.807 51.429c-.8707-.3553-1.2846-1.3427-.922-2.208.3614-.8526 1.359-1.2657 2.23-.908.872.357 2.317 2.7724 2.317 2.7724s-2.751.703-3.626.3437m29.718-27.398c.356.857-.06 1.847-.933 2.202-.872.357-1.87-.049-2.227-.915-.366-.86.348-3.576.348-3.576s2.448 1.427 2.811 2.29M11.631 39.145c-.3638-.8614.0495-1.8508.9234-2.204.8733-.3574 1.8726.051 2.23.913.3604.8565-.3414 3.5755-.3414 3.5755s-2.4523-1.424-2.812-2.285m13.243-27.366c.8733-.355 1.874.056 2.2343.9125.3645.8606-.0564 1.85-.926 2.208-.8726.3574-3.6204-.3483-3.6204-.3483s1.442-2.4124 2.312-2.772"/>
      <path d="M12.5212 22.647c.3596-.8606 1.361-1.2717 2.2273-.9123.8704.354 1.287 1.3434.924 2.2034-.3596.862-2.8063 2.288-2.8063 2.288s-.711-2.719-.345-3.578m10.2875 28.779c-.8704-.355-1.2843-1.342-.922-2.208.3617-.852 1.359-1.265 2.23-.908.872.357 2.3172 2.773 2.3172 2.773s-2.751.703-3.626.344M52.525 24.03c.356.857-.06 1.8465-.933 2.202-.872.357-1.87-.0498-2.227-.915-.366-.86.348-3.5766.348-3.5766s2.448 1.427 2.811 2.2896M11.631 39.145c-.364-.8617.0493-1.851.9232-2.204.8733-.3577 1.8726.051 2.23.913.3604.8562-.3414 3.5752-.3414 3.5752s-2.4524-1.424-2.812-2.285m13.243-27.366c.8732-.355 1.874.056 2.2342.912.3645.8607-.0564 1.85-.926 2.208-.8726.3575-3.6204-.3482-3.6204-.3482s1.442-2.412 2.312-2.772m27.373 28.965c-.358.861-1.363 1.268-2.234.913-.8686-.36-1.287-1.347-.9195-2.206.357-.863 2.803-2.2863 2.803-2.2863s.714 2.719.35 3.5797M39.958 52.181c-.869.353-1.8746-.055-2.2328-.92-.3623-.858.0544-1.8424.9255-2.2025.876-.3567 3.624.3456 3.624.3456s-1.4435 2.416-2.3167 2.777m3.3775-20.004c-.002.47-.39.849-.867.849-.4787-.002-.8612-.387-.8612-.857.0032-.477.8716-1.607.8716-1.607s.86 1.138.856 1.615m-22.115-.849c0-.473.391-.853.869-.85.478.002.864.384.862.859-.002.474-.874 1.603-.874 1.603s-.861-1.137-.858-1.611"/>
      <path d="M32.326 22.0944c-5.5404-.022-10.0715 4.419-10.0966 9.897-.025 5.4814 4.4698 9.957 10.01 9.9803 5.5445.024 10.075-4.415 10.0993-9.895.0237-5.48-4.469-9.9582-10.0128-9.9823m-.089 20.1576c-5.693-.027-10.311-4.6284-10.289-10.262.026-5.6302 4.683-10.1958 10.378-10.1717 5.701.0234 10.318 4.6283 10.292 10.2585-.024 5.6294-4.681 10.1972-10.382 10.1752"/>
      <path d="M32.5018 21.028c.4808.004.8655.3835.8634.8572-.002.4716-.389.8545-.8718.853-.4788-.004-1.6224-.8613-1.6224-.8613s1.152-.849 1.6308-.849M31.646 42.88c-.4788 0-.8648-.387-.8628-.8606.0014-.471.391-.853.871-.853.476.004 1.6218.8647 1.6218.8647s-1.1513.851-1.63.849m8.61-18.497c.3407.334.336.877-.0035 1.211-.3387.332-.887.331-1.223-.007-.3352-.332-.534-1.742-.534-1.742s1.4267.206 1.7605.539M24.0133 39.239c-.3387-.3353-.3373-.878.005-1.2125.3344-.3315.8863-.328 1.22.004.3395.336.5332 1.7494.5332 1.7494s-1.4286-.208-1.7582-.542m15.927.696c-.3367.333-.8914.331-1.2294-.004-.334-.336-.332-.878.007-1.209.339-.332 1.765-.528 1.765-.528s-.2 1.408-.543 1.74M24.906 23.882c.3345-.334.8892-.33 1.2223.0053.3365.3385.333.881-.005 1.215-.336.331-1.7665.521-1.7665.521s.212-1.408.549-1.7412m18.4297 8.296c-.002.47-.39.849-.8668.849-.479-.002-.8615-.387-.8615-.857.003-.477.8715-1.607.8715-1.607s.8607 1.138.8565 1.616m-22.1155-.85c.0007-.473.391-.853.869-.85.4788.002.8648.385.862.859-.0014.474-.8732 1.603-.8732 1.603s-.8606-1.137-.8578-1.611"/>
      <path d="M31.732 22.7338c-.4773-.0014-.8634-.387-.8606-.8565.0014-.4744.391-.853.8683-.851.4795.0013 1.6258.8592 1.6258.8592s-1.1547.8504-1.6335.8483m-.086 20.1464c-.4788 0-.8648-.387-.8628-.8606.0014-.471.391-.853.871-.853.476.004 1.6218.8647 1.6218.8647s-1.1513.8503-1.63.849m-7.6327-3.6418c-.3387-.3353-.3373-.878.005-1.2125.3344-.3312.8863-.3278 1.22.004.3395.336.5332 1.7497.5332 1.7497s-1.4286-.208-1.7582-.5412m15.927.6955c-.3367.3334-.8914.3313-1.2294-.004-.334-.3353-.332-.8772.007-1.2084.339-.332 1.765-.5274 1.765-.5274s-.2 1.408-.543 1.74M38.49 25.053c-.336-.336-.334-.8773.0055-1.209.3373-.332.8885-.332 1.2237.004.3394.3353.5332 1.7454.5332 1.7454s-1.4238-.201-1.7625-.5405m-12.908.576c-.34.333-.886.331-1.225-.006-.34-.334-.337-.88.004-1.209.345-.334 1.766-.524 1.766-.524s-.203 1.406-.547 1.738m-2.634 6.461c-.002.469-.389.85-.865.848-.485-.002-.869-.387-.867-.857.002-.474.875-1.605.875-1.605s.857 1.139.856 1.613"/>
      <path d="M25.778 38.5675c.3338.338.333.8806-.0063 1.2125-.3352.3318-.885.3318-1.2272-.0042-.3338-.3394-.5262-1.7495-.5262-1.7495s1.4258.2052 1.7596.5412m6.636 2.6028c.483.0035.864.389.862.8607-.002.4737-.387.8565-.871.853-.478-.002-1.623-.8647-1.623-.8647s1.152-.851 1.63-.849m6.847-2.982c.342-.3313.891-.3278 1.222.0054.34.338.337.8793-.002 1.209-.337.3354-1.77.5268-1.77.5268s.209-1.4094.55-1.7413m2.35-6.7734c.005-.4737.391-.8552.868-.853.478 0 .862.3876.86.8613-.002.472-.872 1.603-.872 1.603s-.857-1.139-.857-1.611m-14.87-6.651c-.005.868-.723 1.572-1.603 1.569-.876-.004-1.589-.714-1.585-1.583.002-.865.721-1.568 1.598-1.562.88.002 1.59.711 1.589 1.578"/>
      <path d="M26.6794 38.8657c-.0063.869-.7213 1.5698-1.603 1.5678-.875-.0042-1.5888-.7127-1.5846-1.5816.0035-.87.7227-1.571 1.5966-1.569.8836.006 1.5938.715 1.591 1.582m14.6286.061c-.0048.868-.7198 1.571-1.6034 1.567-.8795-.004-1.5847-.715-1.5798-1.583.002-.867.7136-1.569 1.5944-1.565.8795.004 1.5924.712 1.589 1.579m-.2968-14.104c-.0042.868-.7206 1.572-1.5987 1.567-.8815-.004-1.5937-.714-1.5888-1.579.002-.869.724-1.571 1.603-1.565.875.002 1.587.709 1.584 1.576"/>
      <path d="M32.4695 16.5548c-8.612-.035-15.6464 6.855-15.6834 15.3695-.037 8.5096 6.939 15.4618 15.551 15.4976 8.617.037 15.65-6.858 15.687-15.367.039-8.511-6.937-15.463-15.553-15.501m-.132 31.084c-8.734-.036-15.808-7.087-15.769-15.717.036-8.628 7.171-15.618 15.905-15.583 8.737.035 15.81 7.089 15.771 15.715-.035 8.629-7.171 15.619-15.905 15.584"/>
      <path d="M32.5075 8.0735C19.163 8.0185 8.258 18.7038 8.2037 31.8865 8.146 45.072 18.956 55.8455 32.3007 55.9013c13.346.055 24.248-10.6276 24.3058-23.811.055-13.1834-10.7557-23.961-24.099-24.0168m-.207 48.0454c-13.468-.06-24.374-10.929-24.319-24.234.0585-13.302 11.061-24.086 24.526-24.029 13.463.057 24.3693 10.932 24.315 24.233-.058 13.305-11.0595 24.083-24.522 24.028"/>
    </g>
    <path fill="#FFF" d="M93.519 41.0706c-1.2984.0143-2.3952.454-3.1782 1.2565l.0208-4.798c.0013-.18-.1443-.329-.3243-.329l-.9246-.003c-.1806 0-.3262.144-.3275.325l-.0604 13.563c0 .181.1462.329.3262.329l.965.003c.1792 0 .3274-.143.3274-.323l.0227-5.251c.007-1.865 1.333-3.216 3.153-3.209 1.86.007 2.797 1.02 2.79 3.002l-.023 5.485c-.001.179.145.328.325.328l.944.002c.181.001.327-.145.329-.322l.022-5.486c.012-2.848-1.626-4.556-4.385-4.57m25.678 7.901c-.678.745-1.649 1.135-2.808 1.132-2.113-.01-3.642-1.566-3.634-3.702.01-2.124 1.55-3.66 3.666-3.65 2.565.012 3.726 1.923 3.716 3.692-.002.967-.337 1.868-.939 2.53m2.169-7.645l-.965-.0042c-.179 0-.329.146-.329.3245l-.003 1.076c-.873-.969-2.173-1.528-3.641-1.535-3.002-.012-5.277 2.2254-5.288 5.204-.013 3.003 2.239 5.2806 5.243 5.2916 1.447.004 2.716-.535 3.657-1.54l-.006 1.075c0 .1804.146.3283.326.3283l.965.004c.179 0 .324-.145.327-.324l.039-9.573c.002-.181-.143-.3276-.323-.3276m20.942.5985c-.676-.406-1.401-.614-2.151-.616h-.099c-1.197-.006-2.234.396-2.931 1.111l-.011-.711c-.003-.175-.147-.317-.325-.317l-.904-.003c-.1815-.002-.3277.1433-.3277.324l-.0423 9.573c-.0006.181.144.324.325.327l.963.001c.1813.002.3275-.1427.3282-.323l.024-5.581c.007-1.595 1.281-2.848 2.894-2.859.5503.005 1.0493.138 1.4834.4054.075.045.167.058.251.033.0854-.017.16-.074.203-.152l.4345-.773c.086-.154.035-.346-.115-.44m24.491-.5987c-1.521-.009-2.8645.7232-3.594 1.905-.68-1.2188-1.981-1.9278-3.6085-1.936-1.1524-.007-2.151.392-2.86 1.1135l-.004-.61c-.002-.179-.1455-.3237-.3255-.3237l-.9048-.004c-.179 0-.326.1445-.326.3255l-.043 9.571c0 .18.145.3278.3228.3278l.968.005c.182 0 .326-.141.328-.324l.0238-5.679c.007-1.68 1.156-2.848 2.7946-2.84 1.6505.007 2.799 1.1866 2.7916 2.866l-.0246 5.6778c0 .1827.145.325.325.325l.965.005c.179 0 .325-.1427.327-.323l.0236-5.6776c.007-1.69 1.164-2.868 2.815-2.8615 1.666.007 2.781 1.1445 2.773 2.8277l-.0266 5.7374c0 .1783.146.323.325.326h.963c.18.005.326-.1426.326-.321l.026-5.735c.0115-2.568-1.79-4.366-4.381-4.375m23.137 9.07c-2.158-.01-3.662-1.515-3.653-3.664.01-2.1814 1.561-3.755 3.686-3.7473 2.1275.009 3.663 1.6 3.654 3.78-.0105 2.1455-1.5245 3.6387-3.687 3.6316m.04-8.953c-3.0514-.0104-5.279 2.208-5.29 5.281-.011 3.081 2.1437 5.24 5.2445 5.253 3.101.014 5.274-2.13 5.288-5.204.013-3.078-2.192-5.3167-5.243-5.33m23.468.1024c-1.266.011-2.365.448-3.137 1.222l.002-.7385c0-.178-.146-.3267-.322-.3267l-.947-.005c-.18 0-.3265.145-.3265.325l-.041 9.571c-.002.1826.144.328.324.328l.963.004c.1813 0 .329-.146.329-.324l.0226-5.329c.0087-1.817 1.3116-3.1405 3.097-3.1515h.048c1.961.0077 3.078 1.1045 3.071 3.003l-.022 5.5026c-.002.18.1437.328.325.328l.965.0053c.179 0 .326-.146.326-.326l.023-5.524c.012-2.7615-1.8314-4.555-4.6996-4.566m20.825 14.282l5.978-13.543c.047-.099.039-.2124-.022-.3065-.061-.089-.164-.1473-.274-.1473l-1.0397-.006c-.129 0-.2473.078-.301.197l-2.467 5.6376-.834 2.042-3.066-7.7c-.047-.1205-.167-.205-.299-.205l-1.046-.0064c-.106 0-.208.056-.2703.146-.0613.0875-.0723.2023-.031.303l3.806 9.3443-1.755 3.9756"/>
    <g transform="translate(88 11.72)">
      <mask id="b" fill="#fff">
        <use xlink:href="#a"/>
      </mask>
      <path fill="#FFF" d="M16.0738 15.937c-2.0397 1.9523-4.1807 2.7158-6.7805 2.7067-5.093-.024-9.3186-3.0564-9.2933-9.196C.026 3.3104 4.279.3104 9.3726.3325c2.4925.011 4.414.7213 6.329 2.5894l-2.754 2.828c-1.0296-.919-2.3106-1.379-3.5223-1.385-2.9203-.011-5.0658 2.084-5.078 5.101-.015 3.295 2.2573 5.06 4.9643 5.071 1.388.007 2.7798-.372 3.8526-1.42l2.9098 2.818z" mask="url(#b)"/>
    </g>
    <path fill="#FFF" d="M121.432 12.636l.3118 2.0016c1.3633-2.1334 3.1794-2.4428 4.961-2.435 1.819.0078 3.5597.7168 4.5175 1.6683l-1.976 3.709c-.8863-.741-1.703-1.13-3.1294-1.135-2.279-.012-4.387 1.173-4.398 4.364l-.041 9.12-4.346-.018.073-17.295 4.025.017zm33.3124 6.7752c-.2755-2.2475-2.05-3.378-4.544-3.386-2.351-.011-4.2802 1.1015-4.9312 3.3452l9.4752.0408zm-9.561 3.5c.2755 2.14 2.158 3.6935 5.221 3.7065 1.6024.007 3.707-.58 4.709-1.5918l2.7675 2.71c-1.863 1.888-4.895 2.787-7.567 2.774-6.054-.025-9.635-3.725-9.613-9.267.022-5.261 3.671-9.033 9.37-9.009 5.876.026 9.53 3.62 8.824 10.735l-13.714-.059zM176.3444 8l-.022 4.9116 4.846.018-.018 3.6838-4.88-.0208-.029 7.4712c-.0074 1.6495.9147 2.4623 2.265 2.4648.6764.004 1.464-.203 2.1046-.517l1.1982 3.6533c-1.2515.483-2.2847.693-3.6044.721-3.8084.124-6.295-2.026-6.2763-6.34l.0318-7.471-3.2736-.015.0143-3.683 3.275.013.0207-4.455m24.415 13.154c-.0136 3.298 2.293 5.272 5.178 5.284 6.8386.028 6.8835-10.46.0444-10.49-2.886-.01-5.207 1.909-5.222 5.205zm10.58-8.584l4.1677.018-.0728 17.294-4.0963-.018-.2046-2.528c-1.0066 2.033-3.7526 3.003-5.7097 3.03-5.2022.011-9.0373-3.162-9.0094-9.232.024-5.963 4.0625-9.068 9.1907-9.01 2.3522.009 4.59 1.107 5.5842 2.829l.15-2.384z"/>
    <g transform="translate(223.806 12.368)">
      <mask id="d" fill="#fff">
        <use xlink:href="#c"/>
      </mask>
      <path fill="#FFF" d="M13.205 18.062l.0396-9.05c.011-2.6314-1.4412-4.6364-4.2203-4.6474-2.6707-.011-4.496 2.1892-4.507 4.8214l-.0377 8.8378-4.31-.0156L.2436.677l3.884.0188.2728 2.352C6.188 1.334 7.9754.4648 10.1814.4746c4.1328.0162 7.431 3.0824 7.409 8.52l-.0376 9.083-4.3478-.0155z" mask="url(#d)"/>
    </g>
  </g>
</svg>
