<svg xmlns="http://www.w3.org/2000/svg" width="26" height="24">
  <g fill="#C3852C" fill-rule="evenodd" opacity=".5603">
    <path d="M15.678 10.8017c-.0054 0-.0107-.0008-.017-.0008-.1592-.0085-.2814-.144-.2735-.301.004-.0687.333-6.8758-3.7172-9.0598-.1403-.0744-.192-.249-.1147-.3872.0763-.14.2538-.19.394-.1142 4.3726 2.3572 4.0342 9.2976 4.0173 9.5918-.008.153-.1365.271-.289.271"/>
    <path d="M15.3524 7.054c-.1288 0-.2468-.085-.281-.2136-.329-1.2305-1.995-1.8984-3.2026-1.65-.1523.0327-.3104-.0678-.343-.2224-.032-.155.068-.306.2254-.3376 1.4873-.3055 3.4666.5126 3.881 2.0648.0417.1526-.0512.3084-.206.3486-.025.007-.05.0102-.0738.0102m4.212 2.956c-.076 0-.152-.0296-.208-.0874-.4556-.4617-1.3735-.7188-1.383-.7208-.154-.043-.2443-.2-.201-.353.0434-.1514.201-.242.357-.1978.0438.011 1.0772.2994 1.6434.8738.111.1127.108.294-.0066.404-.0557.0532-.1288.0813-.2018.0813"/>
    <path d="M12.6533 5.14c-.0495 0-.0982-.012-.144-.0377-.0186-.0114-1.8947-1.072-2.6165-1.3233-.1515-.052-.2303-.2156-.177-.365.0532-.1487.22-.2264.37-.1744.772.2685 2.6336 1.322 2.7128 1.366.1383.079.186.2546.106.391-.0528.0923-.1506.1435-.2513.1435m10.7884-2.407c-3.285.2184-7.2953 4.3204-7.7542 7.543 3.137-1.0227 6.2454-3.867 7.7542-7.543"/>
    <path d="M12.0764 4.7134C10.0784 3.5317 4.306 5.588.2662 11.0148c5.0613-.4816 10.3893-3.9384 11.8102-6.3014M0 .0744c4.3952-.327 8.2135.35 10.2556 3.5004C7.015 4.3196.9764.818 0 .0745"/>
    <path d="M9.521 7.275c.868 2.1424-.4647 6.3875-2.817 8.094-.3716-3.1066 1.2264-6.6492 2.817-8.094m9.6105 2.1985c2.6788-.4808 5.5206 3.195 6.498 4.9017-2.709-.1753-6.075-3.3417-6.498-4.9017m-1.44 6.7343c-.305.0504-.6012-.2002-.661-.559-.06-.358.138-.6882.4423-.7383.3062-.0492.6017.201.662.5586.0594.3594-.1387.6897-.4432.739zM15.6 13.7923c-.4923-.5744-.5382-1.335-.1023-1.6995.4374-.363 1.1902-.1916 1.683.384.4935.5744.539 1.335.1015 1.6983-.436.3644-1.189.193-1.6822-.3825zm.078-3.2766c-2.6215-.482-5.8314 1.9822-6.5223 5.6254-.6904 3.644.8518 6.9826 4.0238 7.567 3.1708.582 5.8315-1.983 6.5215-5.626.69-3.643-1.4032-7.0833-4.023-7.566z"/>
  </g>
</svg>
